Coordinates
version=1
nRows=27
nColumns=38
inDegrees=no

Units are S.I. units (second, meters, Newtons, ...)
If the header above contains a line with 'inDegrees', this indicates whether rotational values are in degrees (yes) or radians (no).

endheader
time	pelvis_tilt	pelvis_list	pelvis_rotation	pelvis_tx	pelvis_ty	pelvis_tz	hip_flexion_r	hip_adduction_r	hip_rotation_r	knee_angle_r	ankle_angle_r	subtalar_angle_r	mtp_angle_r	hip_flexion_l	hip_adduction_l	hip_rotation_l	knee_angle_l	ankle_angle_l	subtalar_angle_l	mtp_angle_l	lumbar_extension	lumbar_bending	lumbar_rotation	arm_flex_r	arm_add_r	arm_rot_r	elbow_flex_r	pro_sup_r	wrist_flex_r	wrist_dev_r	arm_flex_l	arm_add_l	arm_rot_l	elbow_flex_l	pro_sup_l	wrist_flex_l	wrist_dev_l
2.43	-0.333604	1.47585	-1.16186	0.663886	-0.321871	0.948053	-0.194787	0.0715205	-0.195087	0.192022	-0.216406	0	0	0.394146	-0.105441	-0.0520988	0.923601	-0.187526	0	0	-0.182955	0.0471932	-0.0638946	0.143267	-0.285239	0.31684	0.843798	1.5708	0	0	-0.255965	-0.251476	0.116832	0.832309	1.5708	0	0
2.44	-0.353403	1.47794	-1.13854	0.664561	-0.330595	0.946516	-0.205304	0.074291	-0.195183	0.186466	-0.211394	0	0	0.393233	-0.100882	-0.0544087	0.851683	-0.196105	0	0	-0.181477	0.0484514	-0.0655332	0.146034	-0.283712	0.311342	0.852895	1.5708	0	0	-0.256682	-0.250775	0.114028	0.832399	1.5708	0	0
2.45	-0.393404	1.48236	-1.0949	0.665358	-0.339485	0.944617	-0.211839	0.0771594	-0.196798	0.1835	-0.205615	0	0	0.393365	-0.0969502	-0.0557222	0.777238	-0.201459	0	0	-0.175351	0.0504211	-0.072125	0.154996	-0.284024	0.322572	0.855454	1.56771	0	0	-0.26098	-0.247922	0.104912	0.832276	1.5708	0	0
2.46	-0.440245	1.48587	-1.04409	0.666222	-0.348472	0.942647	-0.220205	0.0810028	-0.196824	0.177475	-0.201109	0	0	0.390981	-0.0941977	-0.0563803	0.699213	-0.210435	0	0	-0.171086	0.0529562	-0.0728633	0.154464	-0.282308	0.312929	0.865433	1.5708	0	0	-0.26073	-0.246777	0.102782	0.831633	1.5708	0	0
2.47	-0.498261	1.48888	-0.981543	0.667207	-0.357578	0.940546	-0.228605	0.0856393	-0.197334	0.171666	-0.19639	0	0	0.387854	-0.0921585	-0.054234	0.620177	-0.222612	0	0	-0.166363	0.0562531	-0.0743378	0.15396	-0.281516	0.30609	0.875046	1.5708	0	0	-0.260748	-0.245488	0.100644	0.831106	1.5708	0	0
2.48	-0.562428	1.49112	-0.912597	0.668343	-0.366785	0.938373	-0.236605	0.0904119	-0.199582	0.167886	-0.190791	0	0	0.383605	-0.090614	-0.0510039	0.54424	-0.23529	0	0	-0.16189	0.0601678	-0.0763067	0.153001	-0.280904	0.299398	0.884926	1.5708	0	0	-0.26071	-0.244004	0.0988368	0.830416	1.5708	0	0
2.49	-0.623283	1.49245	-0.847287	0.669658	-0.376092	0.936177	-0.243938	0.0944517	-0.204498	0.168027	-0.184552	0	0	0.378	-0.0890068	-0.0489587	0.473646	-0.245136	0	0	-0.158026	0.0643051	-0.0781878	0.15201	-0.281095	0.294246	0.894446	1.5708	0	0	-0.260423	-0.242257	0.0976924	0.829495	1.5708	0	0
2.5	-0.665361	1.49278	-0.801312	0.671108	-0.385458	0.934079	-0.250883	0.0969771	-0.212246	0.173085	-0.177345	0	0	0.370405	-0.0863463	-0.0486609	0.41206	-0.249522	0	0	-0.156123	0.0678434	-0.0801427	0.151385	-0.280959	0.289509	0.903009	1.5708	0	0	-0.260275	-0.240163	0.0953119	0.82953	1.5708	0	0
2.51	-0.672907	1.49187	-0.790656	0.672691	-0.394821	0.93218	-0.25667	0.0967417	-0.225975	0.188044	-0.16283	0	0	0.359216	-0.0816976	-0.0497292	0.35745	-0.250308	0	0	-0.155389	0.0705111	-0.0882619	0.170211	-0.302537	0.353043	0.906648	1.47555	0	0	-0.264013	-0.236761	0.0870181	0.830552	1.5708	0	0
2.52	-0.670184	1.49235	-0.791256	0.674211	-0.404324	0.93043	-0.259119	0.0937356	-0.241777	0.209845	-0.147412	0	0	0.347696	-0.0749457	-0.0508671	0.308982	-0.248965	0	0	-0.159731	0.0704371	-0.0804026	0.147322	-0.279358	0.275123	0.920653	1.5708	0	0	-0.257875	-0.236034	0.089921	0.831222	1.5708	0	0
2.53	-0.660236	1.49237	-0.800288	0.675638	-0.413947	0.928858	-0.262214	0.0904766	-0.253994	0.231187	-0.136875	0	0	0.33521	-0.0684749	-0.0514756	0.267808	-0.246691	0	0	-0.161447	0.0703092	-0.0792311	0.145988	-0.278054	0.269959	0.925652	1.5708	0	0	-0.255722	-0.234628	0.0897342	0.829751	1.5708	0	0
2.54	-0.651502	1.49263	-0.809094	0.676939	-0.423659	0.927421	-0.264025	0.0863663	-0.264981	0.255046	-0.12725	0	0	0.323017	-0.0628851	-0.0505185	0.234025	-0.246961	0	0	-0.162771	0.0696458	-0.0771523	0.144443	-0.276176	0.265238	0.928626	1.5708	0	0	-0.252945	-0.233605	0.0907566	0.827063	1.5708	0	0
2.55	-0.646886	1.49331	-0.814699	0.678149	-0.433457	0.926088	-0.264329	0.0813055	-0.275019	0.281122	-0.118917	0	0	0.312359	-0.0585021	-0.0490673	0.210759	-0.249519	0	0	-0.163328	0.0685317	-0.0743866	0.143047	-0.27431	0.262012	0.929447	1.5708	0	0	-0.249835	-0.232883	0.0929356	0.823188	1.5708	0	0
2.56	-0.642689	1.4943	-0.820369	0.67934	-0.443394	0.924875	-0.263444	0.0753846	-0.284914	0.309404	-0.112146	0	0	0.30414	-0.054885	-0.0481264	0.201748	-0.253459	0	0	-0.163318	0.0668894	-0.071695	0.141824	-0.272526	0.260528	0.928409	1.5708	0	0	-0.247295	-0.23234	0.0949339	0.819187	1.5708	0	0
2.57	-0.640768	1.49584	-0.823909	0.680633	-0.453534	0.923759	-0.261386	0.0683391	-0.294997	0.33962	-0.107306	0	0	0.298583	-0.0512509	-0.047021	0.207153	-0.257051	0	0	-0.162367	0.0650414	-0.0698404	0.14001	-0.270646	0.260168	0.926304	1.5708	0	0	-0.245584	-0.231193	0.0946992	0.81568	1.5708	0	0
2.58	-0.638837	1.4981	-0.827613	0.682068	-0.463924	0.922753	-0.258587	0.0600154	-0.304561	0.370705	-0.104849	0	0	0.294232	-0.0467033	-0.0446002	0.222125	-0.258009	0	0	-0.160014	0.0627724	-0.0683591	0.137471	-0.270142	0.263339	0.923288	1.56888	0	0	-0.244316	-0.229992	0.094985	0.811444	1.5708	0	0
2.59	-0.631706	1.50119	-0.836489	0.683674	-0.474622	0.921906	-0.255592	0.0503929	-0.312951	0.401699	-0.104861	0	0	0.289598	-0.0406416	-0.0423629	0.238541	-0.256666	0	0	-0.156158	0.0595705	-0.0671394	0.134171	-0.271313	0.270498	0.919194	1.55917	0	0	-0.243534	-0.228787	0.0959615	0.806333	1.5708	0	0
2.6	-0.592052	1.50301	-0.877485	0.685422	-0.485586	0.921524	-0.257587	0.0412387	-0.316218	0.425301	-0.112032	0	0	0.280675	-0.0332109	-0.0411736	0.247055	-0.25902	0	0	-0.155677	0.0553085	-0.0643061	0.124969	-0.266661	0.25901	0.91698	1.5708	0	0	-0.241788	-0.227774	0.0972623	0.801907	1.5708	0	0
2.61	-0.563068	1.50867	-0.907256	0.687341	-0.496811	0.921102	-0.252639	0.0286688	-0.322471	0.457734	-0.115389	0	0	0.276789	-0.023758	-0.0407075	0.251912	-0.268308	0	0	-0.149283	0.0492013	-0.0624736	0.116253	-0.265064	0.256633	0.911909	1.5708	0	0	-0.240061	-0.227306	0.10096	0.794658	1.5708	0	0
2.62	-0.540515	1.51653	-0.930003	0.689387	-0.50819	0.920809	-0.243959	0.0150082	-0.326954	0.49311	-0.120513	0	0	0.277406	-0.0142641	-0.0421846	0.258585	-0.284103	0	0	-0.137154	0.042298	-0.068169	0.122571	-0.279368	0.308578	0.89804	1.50532	0	0	-0.242844	-0.225449	0.0991195	0.785859	1.5708	0	0
2.63	-0.550474	1.5272	-0.91971	0.691511	-0.51976	0.920604	-0.231039	0.00163831	-0.327078	0.52877	-0.13047	0	0	0.283005	-0.00557364	-0.0443717	0.269539	-0.298933	0	0	-0.124945	0.0349265	-0.0579828	0.0932511	-0.260205	0.247371	0.895964	1.5708	0	0	-0.234501	-0.226639	0.113079	0.773651	1.5708	0	0
2.64	-0.544518	1.53542	-0.92504	0.693725	-0.531328	0.92071	-0.220405	-0.0102791	-0.323068	0.563101	-0.143257	0	0	0.286652	0.00126601	-0.04807	0.284346	-0.307172	0	0	-0.113621	0.028733	-0.0582939	0.0828457	-0.258113	0.246255	0.886534	1.5708	0	0	-0.233813	-0.225271	0.114838	0.764834	1.5708	0	0
2.65	-0.564261	1.54265	-0.904725	0.695974	-0.542914	0.920912	-0.208176	-0.0208844	-0.315221	0.599757	-0.159066	0	0	0.2908	0.00591801	-0.0510923	0.303723	-0.309992	0	0	-0.102481	0.0239597	-0.0587649	0.0723319	-0.257437	0.247172	0.877692	1.5708	0	0	-0.233753	-0.223844	0.116493	0.757161	1.5708	0	0
2.66	-0.60913	1.54845	-0.859152	0.698261	-0.554478	0.921298	-0.194975	-0.0302397	-0.30415	0.638113	-0.178529	0	0	0.293779	0.0088955	-0.0523545	0.325004	-0.310072	0	0	-0.0922578	0.0205596	-0.0600686	0.0619373	-0.257211	0.249452	0.868926	1.5708	0	0	-0.234067	-0.222414	0.118282	0.750172	1.5708	0	0
2.67	-0.693582	1.55328	-0.773252	0.700686	-0.565978	0.92196	-0.180436	-0.0392415	-0.291655	0.678671	-0.201369	0	0	0.29499	0.0113957	-0.0510119	0.344398	-0.309306	0	0	-0.0827343	0.0182843	-0.0628301	0.0521352	-0.25749	0.253534	0.859587	1.5708	0	0	-0.234214	-0.220296	0.118257	0.743576	1.5708	0	0
2.68	-0.878095	1.55775	-0.586412	0.703266	-0.57732	0.922881	-0.16333	-0.0483162	-0.277063	0.721981	-0.224383	0	0	0.294998	0.0143325	-0.0475068	0.359937	-0.306393	0	0	-0.0726109	0.0167376	-0.0668041	0.0437624	-0.25886	0.260966	0.848429	1.5708	0	0	-0.233252	-0.218041	0.119587	0.735418	1.5708	0	0
2.69	-2.29249	1.55237	0.822711	0.705005	-0.587583	0.923093	-0.139238	-0.0453581	-0.12698	0.742998	-0.230886	0	0	0.312897	0.0121716	-0.0429466	0.376069	-0.298784	0	0	-0.0463392	0.0182692	-0.0647634	0.0401152	-0.260882	0.276634	0.828816	1.5708	0	0	-0.229531	-0.213168	0.120735	0.719479	1.5708	0	0
